<svg width="1542" height="331" viewBox="0 0 1542 331" fill="none" xmlns="http://www.w3.org/2000/svg">
<g clip-path="url(#clip0_1_2)">
<path d="M1434.09 211.065L1533.88 245H1390.7L1372.35 242.997L1363.45 237.434L1393.82 211.065H1434.09Z" fill="#172B4D"/>
<path d="M1420.96 148.758V143.417C1420.96 143.417 1409.28 120.275 1407.61 120.052C1405.94 119.83 1270.22 63.3083 1270.22 63.3083L1321.95 164.001L1342.42 185.808L1420.96 148.758Z" fill="white" stroke="#36B37E" stroke-width="1.35786" stroke-miterlimit="10"/>
<mask id="mask0_1_2" style="mask-type:alpha" maskUnits="userSpaceOnUse" x="1269" y="62" width="154" height="126">
<path d="M1421.38 149.363V144.022C1421.38 144.022 1409.7 120.879 1408.03 120.657C1406.36 120.434 1270.64 63.913 1270.64 63.913L1322.37 164.606L1342.84 186.413L1421.38 149.363Z" fill="white" stroke="#36B37E" stroke-width="1.35786" stroke-miterlimit="10"/>
</mask>
<g mask="url(#mask0_1_2)">
<path d="M1364.34 122.611L1347.32 123.168L1339.53 109.371L1323.18 110.15L1330.85 123.613L1314.61 124.169L1322.18 137.854L1338.53 137.52L1355.44 137.075L1363.67 151.317L1381.14 151.206L1389.81 165.892H1408.17L1399.16 150.983L1390.37 136.297L1372.68 136.742L1364.34 122.611Z" fill="#C5E9DA"/>
<path d="M1356.22 108.703L1348.21 95.1294L1331.74 96.0195L1339.53 109.371L1356.22 108.703Z" fill="#36B37E"/>
<path d="M1381.8 121.944L1373.35 107.925L1356.22 108.703L1364.34 122.611L1381.8 121.944Z" fill="#36B37E"/>
<path d="M1390.93 107.146L1382.36 93.2379L1365.12 94.128L1373.35 107.925L1390.93 107.146Z" fill="#36B37E"/>
<path d="M1399.71 121.387L1381.8 121.944L1390.37 136.297L1408.61 135.963L1427.3 135.518L1418.07 120.831L1409.06 106.367L1390.93 107.146L1399.71 121.387Z" fill="#36B37E"/>
<path d="M1307.27 110.817L1323.18 110.15L1315.72 96.7984L1331.74 96.0195L1324.18 82.7793L1308.38 83.7806L1292.92 84.782L1300.04 97.6885L1284.69 98.4673L1269.78 99.2461L1276.56 112.153L1291.69 111.485L1298.81 124.725L1314.61 124.169L1307.27 110.817Z" fill="#172B4D"/>
<path d="M1283.46 125.17L1290.47 138.522L1306.16 138.188L1298.81 124.725L1283.46 125.17Z" fill="#36B37E"/>
<path d="M1271.11 73.2107L1277.79 85.7833L1292.92 84.782L1285.91 72.0981L1271.11 73.2107Z" fill="#36B37E"/>
<path d="M1348.21 95.1294L1365.12 94.128L1357 80.6653L1349.1 67.425L1332.74 68.6489L1316.72 69.8728L1324.18 82.7793L1340.42 81.7779L1348.21 95.1294Z" fill="#36B37E"/>
<path d="M1391.48 78.44L1374.02 79.5527L1382.36 93.238L1400.16 92.3479L1391.48 78.44Z" fill="#36B37E"/>
<path d="M1427.53 105.588L1418.4 91.3465L1400.16 92.3478L1409.06 106.367L1427.53 105.588Z" fill="#36B37E"/>
<path d="M1306.16 138.188L1313.61 151.985L1329.85 151.762L1322.18 137.854L1306.16 138.188Z" fill="#36B37E"/>
</g>
<path d="M1390.7 145.198L1328.41 158.549L1326.85 162.666L1340.75 181.692L1390.7 145.198Z" fill="#172B4D"/>
<path d="M1426.3 149.426L1487.49 0.222504L1448.11 160.774L1443.88 162.221L1426.3 149.426Z" fill="white" stroke="#36B37E" stroke-width="1.35786" stroke-miterlimit="10"/>
<path d="M1448.44 159.328L1430.2 139.857L1426.3 149.425L1443.88 162.221L1448.11 160.774L1448.44 159.328Z" fill="#36B37E"/>
<path d="M1443.88 162.221L1431.31 151.539L1411.84 136.742L1362.56 156.546L1360.33 168.451L1372.35 185.475L1443.88 162.221Z" fill="white" stroke="#36B37E" stroke-width="1.35786" stroke-miterlimit="10"/>
<path d="M1418.63 170.343L1455 158.549L1434.09 211.065L1404.05 212.956L1418.63 170.343Z" fill="white" stroke="#36B37E" stroke-width="1.35786" stroke-miterlimit="10"/>
<path d="M1379.58 182.915L1372.35 185.475L1369.01 232.984L1372.35 242.997L1404.05 212.956L1418.63 170.343L1379.58 182.915Z" fill="white" stroke="#36B37E" stroke-width="1.35786" stroke-miterlimit="10"/>
<path d="M1476.92 151.539L1539.78 185.475L1379.58 182.916L1476.92 151.539Z" fill="#C5E9DA" stroke="#36B37E" stroke-width="1.35786" stroke-miterlimit="10"/>
<path d="M1372.35 185.475V177.686L1321.95 108.37L1315.28 118.94L1363.45 237.434L1369.01 232.984L1372.35 185.475Z" fill="white" stroke="#36B37E" stroke-width="1.35786" stroke-miterlimit="10"/>
<path d="M1321.95 108.37L1315.28 118.94L1292.81 139.857L1310.61 103.919L1321.95 108.37Z" fill="white" stroke="#36B37E" stroke-width="1.35786" stroke-miterlimit="10"/>
<path d="M1442.1 190.815L1379.58 182.915L1444.88 184.028L1442.1 190.815Z" fill="#172B4D"/>
<path d="M1386.37 180.801L1364.56 162.666L1363.67 165.781L1372.35 177.686V185.475L1386.37 180.801Z" fill="#172B4D"/>
<path d="M1358.78 226.085L1353.66 232.427L1346.98 226.085L1312.16 121.944L1315.28 118.94L1358.78 226.085Z" fill="#C5E9DA" stroke="#36B37E" stroke-width="1.35786" stroke-miterlimit="10"/>
</g>
<g clip-path="url(#clip1_1_2)">
<path d="M49.0468 322.24L277.485 319.286L188.963 294.933L198.941 273.828L255.558 266.058L241.055 262.695L202.073 260.956L49.0468 322.24Z" fill="#172B4D"/>
<path d="M175.389 214.454L168.428 214.57L110.535 193L175.969 230.109L186.643 221.295L175.389 214.454Z" fill="#36B37E"/>
<path d="M175.389 214.454L288.042 193.812L231.774 248.431L175.389 214.454Z" fill="#172B4D"/>
<path d="M110.535 193L222.956 256.897L197.665 261.535L135.711 266.058L110.535 193Z" fill="white" stroke="#36B37E" stroke-width="1.43685" stroke-miterlimit="10" stroke-linejoin="round"/>
<path d="M222.956 256.897L288.042 193.812L241.055 262.695L222.956 256.897Z" fill="white" stroke="#36B37E" stroke-width="1.43685" stroke-miterlimit="10" stroke-linejoin="round"/>
<path d="M175.969 230.109L205.09 206.104L208.106 208.539L198.941 243.213L175.969 230.109Z" fill="white" stroke="#36B37E" stroke-width="1.43685" stroke-miterlimit="10" stroke-linejoin="round"/>
<path d="M208.106 208.539L234.442 245.88L222.956 256.897L198.941 243.213L208.106 208.539Z" fill="white" stroke="#36B37E" stroke-width="1.43685" stroke-miterlimit="10" stroke-linejoin="round"/>
<path d="M241.055 262.695L197.665 261.535L222.956 256.897L241.055 262.695Z" fill="white" stroke="#36B37E" stroke-width="1.43685" stroke-miterlimit="10" stroke-linejoin="round"/>
<path d="M91.1605 244.836L81.8791 246.46L0.202637 229.993L95.3371 265.478L107.751 251.446L91.1605 244.836Z" fill="white" stroke="#36B37E" stroke-width="1.43685" stroke-miterlimit="10" stroke-linejoin="round"/>
<path d="M91.1605 244.836L236.879 193.812L173.417 277.886L91.1605 244.836Z" fill="#C5E9DA" stroke="#36B37E" stroke-width="1.43685" stroke-miterlimit="10"/>
<path d="M0.202637 229.993L163.672 290.875L130.839 302.471L49.1621 321.373L0.202637 229.993Z" fill="white" stroke="#36B37E" stroke-width="1.43685" stroke-miterlimit="10" stroke-linejoin="round"/>
<path d="M163.672 290.874L236.879 193.812L188.963 294.933L163.672 290.874Z" fill="white" stroke="#36B37E" stroke-width="1.43685" stroke-miterlimit="10" stroke-linejoin="round"/>
<path d="M95.3372 265.478L129.098 227.558L133.623 229.993L128.75 277.886L95.3372 265.478Z" fill="#36B37E"/>
<path d="M133.623 229.993L176.433 273.944L163.672 290.875L128.75 277.886L133.623 229.993Z" fill="white" stroke="#36B37E" stroke-width="1.43685" stroke-miterlimit="10" stroke-linejoin="round"/>
<path d="M188.963 294.933L130.839 302.471L163.671 290.875L188.963 294.933Z" fill="white" stroke="#36B37E" stroke-width="1.43685" stroke-miterlimit="10" stroke-linejoin="round"/>
<mask id="mask1_1_2" style="mask-type:alpha" maskUnits="userSpaceOnUse" x="-1" y="229" width="166" height="93">
<path d="M0 230.425L163.364 290.631L131.013 301.774L49.3367 320.676L0 230.425Z" fill="white" stroke="#36B37E" stroke-width="1.43685" stroke-miterlimit="10" stroke-linejoin="round"/>
</mask>
<g mask="url(#mask1_1_2)">
<path d="M98.3538 293.309L80.6031 293.889L72.3658 279.625L55.3112 280.321L63.3165 294.469L46.4939 294.933L54.2671 309.196L71.4377 308.849L88.9564 308.385L97.5417 323.344L115.872 323.112L124.922 338.42H143.949L134.667 322.88L125.502 307.689L106.939 308.037L98.3538 293.309Z" fill="#C5E9DA"/>
<path d="M89.7684 278.814L81.4152 264.666L64.2446 265.594L72.3658 279.625L89.7684 278.814Z" fill="#C5E9DA"/>
<path d="M116.453 292.729L107.751 278.002L89.7684 278.814L98.3537 293.309L116.453 292.729Z" fill="#36B37E"/>
<path d="M126.082 277.306L117.149 262.694L99.0499 263.738L107.751 278.002L126.082 277.306Z" fill="#172B4D"/>
<path d="M135.131 292.034L116.453 292.729L125.502 307.689L144.413 307.225L163.904 306.761L154.274 291.454L144.877 276.494L126.082 277.306L135.131 292.034Z" fill="#36B37E"/>
<path d="M38.7206 281.017L55.3112 280.321L47.538 266.521L64.2445 265.594L56.3553 251.794L39.8808 252.837L23.7544 253.881L31.1795 267.333L15.2851 268.261L-0.377319 269.073L6.69976 282.409L22.5942 281.713L30.0193 295.513L46.4938 294.933L38.7206 281.017Z" fill="#36B37E"/>
<path d="M13.8928 296.092L21.318 309.892L37.5604 309.544L30.0193 295.513L13.8928 296.092Z" fill="#36B37E"/>
<path d="M1.01483 241.937L8.09191 254.925L23.7543 253.881L16.5612 240.777L1.01483 241.937Z" fill="#36B37E"/>
<path d="M81.4152 264.666L99.0498 263.738L90.5806 249.706L82.3433 235.907L65.2887 237.182L48.5822 238.342L56.3553 251.794L73.2939 250.75L81.4152 264.666Z" fill="#36B37E"/>
<path d="M126.662 247.387L108.447 248.547L117.149 262.694L135.711 261.767L126.662 247.387Z" fill="#36B37E"/>
<path d="M164.252 275.567L154.622 260.723L135.711 261.767L144.877 276.494L164.252 275.567Z" fill="#36B37E"/>
<path d="M37.5605 309.544L45.3337 323.924L62.2723 323.692L54.267 309.196L37.5605 309.544Z" fill="#36B37E"/>
</g>
</g>
<defs>
<clipPath id="clip0_1_2">
<rect width="273" height="245" fill="white" transform="matrix(-1 0 0 1 1542 0)"/>
</clipPath>
<clipPath id="clip1_1_2">
<rect width="289" height="146" fill="white" transform="translate(0 185)"/>
</clipPath>
</defs>
</svg>
